<?xml version="1.0" encoding="UTF-8" standalone="no"?>
<svg viewBox="0 0 1021.5 545" xmlns="http://www.w3.org/2000/svg">
<path d="m90.75,342c6.24878,17.23863-30.8721,16.15799-37.10938,2.26562-14.89921-1.45373-36.16984,4.33312-33.96302-18.93742 8.98635-17.37688 48.2906.24964 63.38489,9.03118l3.1875,2.57812 4.5,5.0625z" fill="#1a1a1a" fill-rule="evenodd" stroke="#000" stroke-width="2"/>
<path d="m227,411.75c11.59849-6.42104 23.78179-4.613 35.32812.76562 13.39657,3.42414 52.35046,8.49157 38.37214,28.31272-9.06729,13.00471-21.86403-1.95658-31.69955-5.7762-30.51063-2.29694-60.29168,20.88244-86.37571,35.76036-12.13405,15.25974-24.26783-.67266-37.11312-4.93961-17.3263-10.27796 29.27719-27.43005 37.86312-36.12289 13.75916-7.7146 28.66672-13.13298 43.625-18z" fill="#1a1a1a" fill-rule="evenodd" stroke="#000" stroke-width="2"/>
<path d="m548,376.5c14.63724-5.69576 29.50519-9.41129 45.09375-5.15625 22.72702,2.23322 44.06286,6.18593 62.40625,16.90625 26.41268,5.62793 52.9592,8.41054 32.5,36.25-15.91275.38204-37.01957-15.18551-56.125-18.5-19.3308-.68075-44.36285-2.876-61.75,6.1875-9.61984,17.47247-30.58048,9.04609-35.875-6.6875-4.03665-12.18034-16.4951-26.01127 6.34271-26.68522l7.40729-2.31478z" fill="#1a1a1a" fill-rule="evenodd" stroke="#000" stroke-width="2"/>
<path d="m748,342c2.71014,24.01584-33.97165,4.09314-46.58136-.37441-13.80002-6.80128-34.51053,2.2199-32.39974-21.5273 12.71991,2.31742 24.01853,3.60249 36.6686,1.71421 15.43399,2.40908 29.59314,11.89262 42.3125,20.1875z" fill="#1a1a1a" fill-rule="evenodd" stroke="#000" stroke-width="2"/>
<path d="m698.25,285c12.87979.0314 32.30394,6.5172 48.03663,2.2369 17.89497,1.56772 46.31371,16.15799 27.71337,19.7631-15.20241,3.61738-25.2869-12.734-41-5-8.42755-.99838-64.45677,3.52051-39.5-13.75l4.75-3.25z" fill="#1a1a1a" fill-rule="evenodd" stroke="#000" stroke-width="2"/>
<path d="m741.5,258.75c15.98495,3.67361 34.00814,7.16002 50.16222,13.71622 12.96766.64473-3.49063,19.80904-10.66222,10.78378-15.18997-4.41104-58.58291-1.77058-58.44945-15.75627 6.66289-2.61831 10.72773-12.52615 18.94945-8.74373z" fill="#1a1a1a" fill-rule="evenodd" stroke="#000" stroke-width="2"/>
<path d="m173,378.25c21.55981,2.70269 42.9607,5.05703 59.5,19.5 23.41531,4.88601-2.54406,14.87535-12.9375,16.45312-35.58704,9.40999-62.98306,34.02094-91.6875,55.17188-18.31412,18.43493-21.70231-24.95509-37.88532-33.2281-4.05058-17.35352-28.94503-16.70782-27.98968-36.1469 12.32586-5.97163 28.4461-10.44037 38.68716-19.06149 7.229-10.20825 53.71998-4.82018 72.31284-2.68851z" fill="#808080" fill-rule="evenodd" stroke="#000" stroke-width="2"/>
<path d="m282,442.5c-1.86404,16.2955 4.25376,39.75129-7.17299,51.00898l-118.82701.49102c1.94617-17.13228 7.78322-16.98842 20.42415-19.1161 27.50298-18.16519 56.15063-35.79185 89.07585-41.8839 5.2534,3.26873 11.7678,6.57077 16.5,9.5z" fill="#808080" fill-rule="evenodd" stroke="#000" stroke-width="2"/>
<path d="m685.5,424.75c9.59369,3.56094 28.99847,5.44871 22.57865,20.07588 5.71605,16.87537-18.64795,54.15543 13.23385,48.73662 17.41058-.4883 34.75455,1.95367 7.30508,1.20047-46.74561-1.78424-96.04856,4.80936-138.49258-19.32547-22.79572-3.91228-34.43104-19.94243-33.125-42.9375-1.87306-13.40673 15.22013-25.39827 27.8111-25.08111 26.70102-4.31495 54.90918-4.17357 78.34515,10.48736 7.34701,2.56635 14.64632,5.47753 22.34375,6.84375z" fill="#808080" fill-rule="evenodd" stroke="#000" stroke-width="2"/>
<path d="m675.5,301.75c16.40733-11.58258 36.65065,8.5794 56.5-.5 15.44399-5.83817 26.49776,8.2748 41.51486,5.73267-3.43906,9.50232-16.72034,46.25096-29.51486,31.26733-16.44064-9.35372-33.37942-18.07182-51.75-16.5-13.30521.55435-33.03609-5.7615-17.39254,15.44683 21.04718.0217 43.48369,9.17255 63.14254,18.80317-17.86007,7.7628-6.47177,29.89363-17.75,42-1.76184,19.24218-20.02426,3.00717-29.375.8125-20.62232-5.59161-40.96604-11.94119-58.375-20.5625-13.22241-8.68885-86.37277-1.45128-43.32812-19.78125 30.66537-15.91753 57.50015-37.87379 86.32812-56.71875z" fill="#666" fill-rule="evenodd" stroke="#000" stroke-width="2"/>
<path d="m715.75,272c18.67244,2.67119 43.47011,10.83032 65.25,11.25 19.69667-1.98056-3.75383,25.63817-14.875,11.1875-19.84103-17.03233-42.65353,3.87895-62.08672-11.29539-1.56784-3.60911 9.2844-8.28485 11.71172-11.14211z" fill="#333" fill-rule="evenodd" stroke="#000" stroke-width="2"/>
<path d="m806.5,210.25c22.23412-6.51488 15.14274,7.93758 4.33682,19.93746-3.95907,14.89648-15.34754,27.29373-13.83682,42.81254-16.75781-4.20436-34.43057-9.27251-50-14 16.69189-14.52822 26.8778-34.39477 47.91417-44.89987 3.6301-1.64626 8.55655-1.03254 11.58583-3.85013z" fill="#333" fill-rule="evenodd" stroke="#000" stroke-width="2"/>
<path d="m23,318.5c-10.3951,7.39715 1.8568,20.82992 6.40046,28.63579 3.86974,19.24914 10.53174,38.78893 28.34954,49.11421 5.41752,14.44194 16.42279,22.83338 28.25,32.875 4.92954,17.72404 42.5414,35.64298 24.1875,52.5-6.99344,16.04165-19.04284,13.97207-34.09024,13.25428-25.17776-.32403-50.6105.25609-75.59726-.87928v-205c7.05136,10.11533 14.03896,20.84879 22.5,29.5z" fill="#808080" fill-rule="evenodd" stroke="#000" stroke-width="2"/>
<path d="m303.25,154.5c12.48219,16.27153-15.72723,16.99922-26.20565,22.51325-42.49666,9.32862-85.04139,23.0149-126.54435,32.98675-7.5081-18.18177-15.03797-47.61819-17.125-70.5-9.98173-42.16641 22.18185-69.80162 62.625-68 30.39697-3.79255 79.78094-11.74214 87.85938,28.73438 6.47359,18.08277 12.07091,36.49499 19.39062,54.26562z" fill="#808080" fill-rule="evenodd" stroke="#000" stroke-width="2"/>
<path d="m430.75,118c12.15331,19.2733-33.10224,16.1575-43.53125,24.93359-19.81471,6.49551-41.1035,8.70249-58.21875,12.06641-6.56318-31.25413-24.43147-64.11048-11.8125-95.6875 19.24676-20.23402 66.29575-29.01672 87.0625-11.0625 11.25659,22.23468 16.24496,47.07007 26.5,69.75z" fill="#808080" fill-rule="evenodd" stroke="#000" stroke-width="2"/>
<path d="m562.75,83c3.09912,15.45387-26.59182,11.2519-36.15625,19.07812-20.51496,3.79195-43.52461,18.96366-63.59375,13.92188-7.74849-30.25137-15.19292-65.51682-1-94.5 26.92578-7.49341 65.25846-17.17865 85.76562,5.73438 6.71551,18.05117 10.732,37.02014 14.98438,55.76563z" fill="#808080" fill-rule="evenodd" stroke="#000" stroke-width="2"/>
<path d="m878,173.25c19.5946,1.95815 46.26176,9.60808 30.89062,35.76562-.09174,21.12908-17.8948,33.98718-21.89062,54.48438-11.72028,19.27135-23.33211,39.97296-31.42244,60.67162 5.19907,15.35869-6.76578,23.41122-13.30386,34.99779 5.58383,8.65892-14.39471,18.54111-12.88182,35.26308 4.09895,14.8036-7.97253,24.77635-11.39188,34.56751-12.82289,3.03032-12.82733,24.70302-23.81993,33.82141-16.4094,9.10194-28.33597,32.05811-48.18007,31.17859-14.56756-2.54388-49.48255,8.13316-40.18439-15.91099 7.00177-11.59511-8.1999-55.10061 15.18439-38.77651 13.15934,13.47149 33.16095-18.22926 11.25-20.0625-31.00941-5.18897-6.22839-21.87943-6.10724-38.39344-5.2105-21.61437 20.31976-25.76371 28.10724-40.85656 14.79846-21.61921 30.05109-43.27528 42.75-66-2.13989-14.25272 8.07229-25.26923 11.875-38.5625 4.93525-13.33901 13.41898-27.15558 28.0378-31.43273 12.1281-11.14966 25.42294-25.12097 41.0872-30.75477z" fill="#808080" fill-rule="evenodd" stroke="#000" stroke-width="2"/>
<path d="m864.25,79.5c2.50289,22.37584-14.70143,28.36462-32.75,16.5-16.10283-9.13856-33.44859,5.48007-48.43093-6.63535-5.73045-7.98121-46.77043-4.02663-39.18188-12.30824 19.09985-10.49973.4768-38.66313 19.86281-50.80641 16.05997-21.43586 46.367-11.24888 69.75-13.25 18.1953,4.22324 36.26535,10.85404 31.5,32.5 .85147,11.315.9643,22.75329-.75,34z" fill="#808080" fill-rule="evenodd" stroke="#000" stroke-width="2"/>
<path d="m905.5,297.25c-18.35271,11.15721-32.13407.27081-15-19.25 18.30759-46.67769 58.63126-81.33137 70.5-131 15.38344-23.21436-38.78115-16.40054-2.25-32.5 15.79525-27.21573 11.32098-1.57842 11.98346,13.74809-.66534,34.88585 3.36351,70.3808-2.73346,104.75191-16.14368,24.65292-30.92741,55.39089-62.5,64.25z" fill="#808080" fill-rule="evenodd" stroke="#000" stroke-width="2"/>
<path d="m940.5,124.25c21.83123.52264 29.32108,19.65561 15.0625,38.875-16.51925,45.85516-54.8769,79.65689-69.875,126.4375-13.8788,17.54792 21.02638,8.43341-6.25,19.125-23.47885,10.07611-.34594,29.85067-9.86781,28.38422-19.61821,7.58674-15.6153-17.92758-8.05456-26.63927 10.69087-24.02479 26.4389-45.32344 34.48487-70.43245 10.56394-13.45377 29.5181-55.88923 3.14062-61.5-25.17538.80509-19.17589-21.30946-.70291-28.6294 11.20925-10.08846 26.14027-26.26138 42.06229-25.6206z" fill="#808080" fill-rule="evenodd" stroke="#000" stroke-width="2"/>
<path d="m733,78.75c43.01936,8.74535 85.96144,18.61178 129.75747,22.64256 37.72903,26.16957 5.64693,80.15327-31.35531,87.55986-38.36049,22.69631-69.07037,55.88314-106.85396,79.58524-64.27031,42.7625-125.15298,95.07625-201.66835,114.38278-98.6127,24.26762-203.27838,24.26281-302.30849,2.02285-47.14231-12.55784-104.39375-23.78557-129.601-70.7668-18.8951-35.70561 6.8037-77.13731 40.03115-92.9657 41.04304-20.44703 87.14015-27.48017 130.66408-41.07944 83.10794-21.02965 163.9349-49.66192 246.0229-74.11016 73.09164-21.45803 149.04797-33.79858 225.31151-27.27119z" fill="#d3bc5f" fill-rule="evenodd" stroke="#000" stroke-width="2"/>
<path d="m517.5,385.25c-9.30563,22.99661-7.62481,56.40176-10.48047,83.73047 6.56209,26.68035-11.23476,28.25049-31.26849,25.59196l-166.75104.42757c1.63893-18.13194 6.49586-48.34071-4.75-58.5-1.54156-22.32056-34.87703-19.64809-50.87299-26.87433-16.87712-1.31881-8.93601-8.78008-1.37701-16.62567 87.87196,12.3818 178.56732,10.72061 265.5-7.75z" fill="#a0892c" fill-rule="evenodd" stroke="#000" stroke-width="2"/>
<path d="m90,349.75c9.93818-5.13198 14.94187,24.1298 10.12567,32.87299-12.32781,5.39262-32.581,21.45556-22.93817-6.12299-.45062-21.30069-10.42722-19.88857 12.8125-26.75z" fill="#00d455" fill-rule="evenodd" stroke="#000" stroke-width="2"/>
<path d="m310.25,483.5c3.6809,18.89575-18.28529,9.20563-29.49905,11.5-60.229-.33599-121.28638.66836-181.00095-.5 7.97501-14.66097 25.81484-24.78882 39.25-32 11.73112,5.81853 31.12311,9.50772 18.69128,26.14428-2.41175,11.62808 23.6308,2.31185 33.07649,5.21205l86.23223-.35633c10.28135-12.98641-1.60779-44.49861 9.10479-49.07225 11.78472,6.92623 25.66815-21.29601 24.55146,7.916 .72416,10.36987.69487,20.81328-.40625,31.15625z" fill="#00d455" fill-rule="evenodd" stroke="#000" stroke-width="2"/>
<path d="m530.5,402c3.07005,15.45771 24.27543,16.49348 26.14455,25.16819 7.64424,15.17966 6.06759,51.52835-16.64699,37.75376-3.88472-20.63586-18.78805-41.814-9.49756-62.92195z" fill="#00d455" fill-rule="evenodd" stroke="#000" stroke-width="2"/>
<path d="m693.25,406c9.88081-8.84734 24.35998,5.82993 33.89062,10.59375 22.36442.46986 15.06624,27.98855-.14062,24.90625-13.20333-5.85608-28.51959-10.82291-40.25-18.5 .68951-6.02171 2.12382-12.47086 6.5-17z" fill="#00d455" fill-rule="evenodd" stroke="#000" stroke-width="2"/>
<path d="m818,429c16.94977,5.28749 51.34319,8.97243 56.89347,30.82816-11.69315,8.04104-28.35721,3.19675-41.01847-3.45316-16.0267-2.98445-39.33042-9.82304-20.72384-25.68231 1.18277-.77225 5.4575.50316 4.84884-1.69269z" fill="#00d455" fill-rule="evenodd" stroke="#000" stroke-width="2"/>
<path d="m931.5,343c-14.42506-7.43464-20.28874,10.68898-35.64462,6.41981-38.25128-.94136 14.04245,18.32015 25.58212,25.66222 22.57255,8.49265 13.26428,28.18005-5.29514,16.91637-23.99362-11.98932-47.51112-27.70186-75.14236-28.4984 3.88651-10.45372 12.40313-28.45928 21.25-25.625 22.83499-3.05711 46.20225-4.65476 69-6.125-.80581,2.42292 1.87931,9.25892.25,11.25z" fill="#00d455" fill-rule="evenodd" stroke="#000" stroke-width="2"/>
<path d="m865.5,463c21.97728-8.03214 11.05531,31.4978-9.375,20-13.79734,3.93331.42794-24.89045 9.375-20z" fill-rule="evenodd" stroke="#000" stroke-width="2"/>
<path d="m935.5,393c11.39769,8.82639-29.63287,37.25509-24.80398,14.31819 3.12734-19.11999 15.91979-9.63894 24.80398-14.31819z" fill-rule="evenodd" stroke="#000" stroke-width="2"/>
<path d="m926,341.75c13.81501,6.84155-14.49664,30.78551-16.5,9.5 3.27324-4.97286 8.46001-14.25261 16.5-9.5z" fill-rule="evenodd" stroke="#000" stroke-width="2"/>
</svg>
