<?xml version="1.0" encoding="UTF-8" standalone="no"?>
<svg width="1173" xmlns="http://www.w3.org/2000/svg" height="853">
 <g stroke-width=".5" fill-rule="evenodd">
  <g stroke="#fff" fill="#fff">
   <path d="m0 426.5v-426.5h1173v853h-1173v-426.5zm765.8-305.5l0.2 1 0.2 129.5q0.3 129.5 1.6 153.7 1.2 24.3 8.7 25.8t8 1.8l0.5 0.2h0.2q0.3 0 0.6 0.5l0.2 0.5h1l5.2 5q5.3 5 8.3 14t3 24-4.5 25-4.5 17.5 2.7 15.3q2.8 7.7 5.3 8l2.5 0.2 17.5 7.5q17.5 7.5 17.7 8.5 0.3 1 0.6 2l0.2 1h0.2q0.3 0 0.6 0.5l0.2 0.5h2l-7.8-21.5q-7.7-21.5-7.7-38.5t3-23 12.3-13.2q9.2-7.3 13.2-9.3t17.5-2 21 3 9.7 4.7q2.3 1.8 2.8 2.8l0.5 1 0.3 0.2 0.2 0.3 0.2 0.3 0.3 0.2 0.5 1 0.5 1 0.3 0.5 0.2 0.5h0.5l0.3 0.2 0.2 0.3 0.2 0.3 0.3 0.2 1-7q1-7 3.5-12t9.8-10.8q7.2-5.7 11.2-7.7t16-1.5 18 3.5 9.2 7.7q3.3 4.8 4.3 7.3t1.5 4.5l0.5 2 0.5 1 0.5 1 0.3-0.2 0.2-0.3 6.5-3.5q6.5-3.5 21.5-3.5t23.2 3.3q8.3 3.2 12.8 7.7t9 17 5.5 19.5 0.5 20-7 28.5-7.5 21 1 11.5 2.5 7.5l0.5 1.5 0.3 1.5 0.2 1.5 2 5.2q2 5.3 9 6.8t27 10.2q20 8.8 38.8 52.3 18.7 43.5 19.2 45l0.5 1.5 0.5 1 0.5 1 0.3 2 0.2 2h-255l-5.5-0.2-5.5-0.3 0.2-0.3 0.3-0.2 0.5-1.5 0.5-1.5 0.5-1.5q0.5-1.5 5.2-13.5l4.8-12v-0.5l0.2-0.3 0.3-0.2 0.5-1 0.5-1 0.5-2 0.5-2 0.5-1.5q0.5-1.5 1-3l0.5-1.5 0.3-1 0.2-1-0.2-1.5-0.3-1.5-0.3-0.2-0.2-0.3-0.2-0.3-0.3-0.2-0.3 0.2-0.2 0.3-0.2 0.3-0.3 0.2-0.3-0.2-0.2-0.3h-61l-0.2 0.3-0.3 0.2-0.3 1-0.2 1 0.2 1 0.3 1 8.5 19q8.5 19 9 20.5l0.5 1.5 0.3 2 0.2 2h-267l0.2-1.5 0.3-1.5 0.5-1 0.5-1 0.5-1q0.5-1 8-20l7.5-19 0.3-1 0.2-1v-3l-29.5 0.2-29.5 0.3-1.5 0.3-1.5 0.2v2.5l0.2 0.3 0.3 0.2 0.5 1 0.5 1 8.5 19.5q8.5 19.5 9 20.5l0.5 1 0.3 2.5 0.2 2.5-86 0.2q-86 0.3-132.5 0.3h-46.5l-0.2-0.3-0.3-0.2v-2l0.5-1.5 0.5-1.5 0.5-1q0.5-1 7.5-20l7-19 0.3-0.2 0.2-0.3v-0.5l-0.2-1-0.3-1-0.3-0.2-0.2-0.3h-18q-18 0-27.5 0.3l-9.5 0.2v4l0.2 1 0.3 1 7.5 17q7.5 17 8 18l0.5 1 0.5 1.5 0.5 1.5v2l-0.3 0.2-0.2 0.3-86 0.5q-86 0.5-131.5 0.2l-45.5-0.2h-0.5v-3l0.5-1.5 0.5-1.5 0.5-1.5q0.5-1.5 16-45t17.8-44.5l2.2-1 0.2-0.5 0.3-0.5h0.5l0.5-0.2 0.5-0.3 0.2-0.3 0.3-0.2h0.5v-0.2q0-0.3 1-0.6l1-0.2 0.2-0.5q0.3-0.5 0.6-0.5h0.2l0.5-0.2q0.5-0.3 5.7-3 5.3-2.8 13.6-7 8.2-4.3 13.4-13.6l5.3-9.2 0.5-1 0.5-1 0.5-1 0.5-1 0.5-1 0.5-1 0.3-0.2 0.2-0.3 0.2-0.3 0.3-0.2 0.3-0.2 0.2-0.3v-0.5l0.2-0.5q0.3-0.5 1.6-1 1.2-0.5 1.2-1.5v-1l-7.8-22.5q-7.7-22.5-8.7-26.5t-0.5-19.5 3.8-23.3q3.2-7.7 14.2-16.2t15.5-10.5 18.5-2 22.5 3 13.3 7.7q4.7 4.8 8.7 14.3t6 25 1.5 22-7.5 23.5-7 24.5 2.5 15 3 9l0.5 1.5 0.5 1.5 0.5 1.5 0.5 1 0.5 1 0.3-0.2 0.2-0.3 0.2-0.3 0.3-0.2 0.5-1.5 0.5-1.5 0.3-1 0.2-1 0.2-0.5 0.3-0.5 0.3-0.2 0.2-0.3 0.2-0.3 0.3-0.2 0.3-0.2 0.2-0.3 1-0.5 1-0.5 1-0.5 1-0.5 1-0.5q1-0.5 2.2-1.2 1.3-0.8 14-7.6 12.8-6.7 17.6-15.4l4.7-8.8 0.5-1 0.5-1 0.3-0.2 0.2-0.3 0.2-0.3 0.3-0.2 0.3-0.2 0.2-0.3 0.2-0.3 0.3-0.2 0.5-1 0.5-1h0.5l0.2-0.5q0.3-0.5 1.6-1.3 1.2-0.7-1.6-8-2.7-7.2-7.7-22.2t-5.5-28.5 1.5-22 9.5-15 14.8-10.7q7.2-4.3 20.2-4.6l13-0.2 0.2-4q0.3-4 1.8-25l1.5-21 0.3-0.2 0.2-0.3v-0.5l0.2-7.5q0.3-7.5 2.3-25.5t8.5-50 8-33 17.2-6.5l15.8-5.5v-0.2q0-0.3 0.5-0.6l0.5-0.2v-0.2q0-0.3 0.8-1.6l0.7-1.2 0.5-1.5q0.5-1.5 1-2l0.5-0.5 0.5-1 0.5-1 0.5-1 0.5-1 0.3 3.5 0.2 3.5h0.5l0.3-1.5 0.2-1.5 1 0.2 1 0.3 0.2 0.3 0.3 0.2 0.3 0.2 0.2 0.3 0.2 0.3 0.3 0.2v-3l-0.3-0.2-0.2-0.3-0.2-0.3-0.3-0.2-0.3-0.2-0.2-0.3-0.2-0.3-0.3-0.2-0.3-0.2-0.2-0.3-0.2-0.3q-0.3-0.2-2.6-2.4-2.2-2.3-7.4-13.6-5.3-11.2-5.8-9.7t-3-2-4.2-10.3q-1.8-6.7-1.8-8.4 0-1.8-1-2-1-0.3-5.2-8-4.3-7.8-5.3-14.8t1-10.5 0.3-5.3q-1.8-1.7-1.3-2.2l0.5-0.5 0.2-0.3 0.3-0.2 0.3-0.2 0.2-0.3 5-0.5q5-0.5 10.5-4t12.5-6.5 18-3 18.5 3 8 4.5 5.3 6.2q4.7 4.8 5.7 10.8t-1.5 15.5-3.5 11.5-0.3 4.2q0.8 2.3 0.6 14.6-0.3 12.2-3.8 21.2t-3 10 1 6.5l0.5 5.5 0.3 0.5 0.2 0.5h0.5l0.3 0.2 0.2 0.3 0.2 0.3 0.3 0.2 0.5 1 0.5 1 0.3-0.2 0.2-0.3 0.2-0.3 0.3-0.2 0.3-0.2 0.2-0.3 0.2-0.3 0.3-0.2v-3q0-2 0-3.5v-1.5l-0.3-0.2-0.2-0.3-0.2-0.3-0.3-0.2-0.3-1-0.2-1 1 0.2 1 0.3 0.2 0.3 0.3 0.2 0.5 1.5 0.5 1.5 2.7 3.2q2.8 3.3 16.8 3.3t17.2 3.3q3.3 3.2 15.8 36.2t16.2 34.8q3.8 1.7 8.8 1.2t6-0.8l1-0.2v-0.2q0-0.3 0.5-0.6l0.5-0.2v-0.2q0-0.3 0.5-0.6l0.5-0.2 0.2-1 0.3-1 0.3-0.2 0.2-0.3h2v0.5h0.2q0.3 0 0.3-15.5t-1.5-97-2.2-82.3q-0.8-0.7-2-4l-1.3-3.2-0.3-3-0.2-3 0.2-1 0.3-1 0.5-1.5 0.5-1.5 0.3-0.2 0.2-0.3 66-0.5q66-0.5 65.5-1t5.5-0.2q6 0.2 6 1.2t49.5 0.8q49.5-0.3 70.3 0.4 20.7 0.8 21 1.8z"/>
   <path d="m488.8 231l-2.8-84 138 0.2 138 0.3 0.2 0.3 0.3 0.2-2 77q-2 77-1.7 141 0.2 64-0.8 64.2-1 0.3-2 0.6l-1 0.2-0.5 0.2q-0.5 0.3-0.5 0.6v0.2l-1 0.2q-1 0.3-10 6.8t-10.5 9.2q-1.5 2.8-14 3.6-12.5 0.7-16.5 2.7t-15 10.5-13.8 14.8q-2.7 6.2-3.4 11.7l-0.8 5.5h-10l0.2-1 0.3-1 0.5-2q0.5-2 0-11t-3.5-20-5.5-14.5-8.2-6.7q-5.8-3.3-15.8-4.3t-14.5 0-13 7l-8.5 6-0.2 0.3-0.3 0.2-0.3 0.2-0.2 0.3-0.2 0.3-0.3 0.2-0.3 0.2-0.2 0.3-2.5 0.3-2.5 0.2-4 0.2q-4 0.3-6.5 0.8t-7 3-12.7 9.2q-8.3 6.8-10.8 11.8t-3.5 11l-1 6-0.3 1.5-0.2 1.5h-10.5v-2l0.5-1.5q0.5-1.5 1-13.5t-2.5-23-6.3-15.2q-3.2-4.3-8.7-7l-5.5-2.8-0.5-0.2q-0.5-0.3-2.5-0.8l-2-0.5-4.5-0.3-4.5-0.2 0.2-8q0.3-8 0.3-36.5v-28.5l-0.3-0.2-0.2-0.3-0.2-0.3-0.3-0.2-0.3 0.2-0.2 0.3-0.2 0.3-0.3 0.2-0.3 0.2-0.2 0.3-0.2 0.3-0.3 0.2-0.3 0.2-0.2 0.3-0.2 0.3-0.3 0.2-0.3 0.2-0.2 0.3-0.2 0.3-0.3 0.2-0.3 0.2-0.2 0.3-0.2 0.3-0.3 0.2-0.3 0.2-0.2 0.3-0.2 0.3-0.3 0.2-0.3 0.2q-0.2 0.3-1.2 1.6l-1 1.2-0.5 0.2-0.5 0.3v1.5l-0.5 0.2q-0.5 0.3-0.5 0.6v0.2l-0.5 0.2-0.5 0.3v0.5l-2.8 4q-2.7 4-3.2 5l-0.5 1-0.3 0.2-0.2 0.3-0.2 0.3-0.3 0.2-0.5 1-0.5 1-0.3 0.2-0.2 0.3-0.2 0.3-0.3 0.2-0.5 1-0.5 1-0.3-0.2-0.2-0.3-0.2-0.3-0.3-0.2-0.5-4.5q-0.5-4.5-0.8-10l-0.2-5.5h0.2q0.3 0 0.8-4.5t2.5-11.5 3.3-7.2q1.2-0.3 0.7 0.2t3-1.5l3.5-2 0.2-0.3q0.3-0.2 0.6-0.7l0.2-0.5h0.2q0.3 0 0.6-0.5l0.2-0.5h0.2q0.3 0 0.6-0.5l0.2-0.5h1.5l0.3-0.5 0.2-0.5h0.5l0.3-0.5 0.2-0.5 1.2-1q1.3-1 1.6-1.5l0.2-0.5h0.2q0.3 0 0.6-0.5l0.2-0.5h0.5v-6.5q0-6.5-2.7-90.5zm9.2 119.2q1-0.2 0.8 0.8-0.3 1-2.6 2.5-2.2 1.5-0.7-0.7 1.5-2.3 2.5-2.6z"/>
  </g>
  <g stroke="#656565" fill="#656565">
   <path d="m273.8 715.2l0.2 0.3 0.2 0.3 0.3 0.2 0.5 1 0.5 1 0.3 0.2 0.2 0.3 1 0.5 1 0.5-103 0.5q-103 0.5-128.5 0.5h-25.5l-1 0.5-1 0.5v0.5h-0.5v-3l0.5-1.5 0.5-1.5 0.5-1.5q0.5-1.5 16-45t18.2-45l2.8-1.5v0.2q0 0.3 1.5 0.6 1.5 0.2 1-0.8l-0.5-1v-0.2q0-0.3 1-0.6l1-0.2 0.2-0.5q0.3-0.5 0.6-0.5h0.2v1q0 1 7-2.2 7-3.3 23.5-5.8t56-2 52.5 4 22.8 8.8q9.7 5.2 14.2 8.7t16.5 35 15.5 39.5 3.8 8.2zm-217.6-90q0.3-0.2 0.6 0l0.2 0.3h-0.5q-0.5 0-0.3-0.3z"/>
   <path d="m560 714l0.5 1 0.3 0.2 0.2 0.3 0.2 0.3 0.3 0.2 0.5 1 0.5 1 0.3 0.2 0.2 0.3 0.2 0.3 0.3 0.2 0.3 0.2 0.2 0.3h-207l0.2-0.3 0.3-0.2 0.5-2.5q0.5-2.5 1-13.5l0.5-11-0.5-1.5-0.5-1.5-1 10.5q-1 10.5-1.3 15.5l-0.2 5h-49l0.2-1 0.3-1 0.5-1.5 0.5-1.5 15.5-41q15.5-41 16.2-44 0.8-3 10.8-8.2 10-5.3 30-8.3t60-2 53 5.5 24.2 11.8q11.3 7.2 22.8 37.7t15 38.5 4 9z"/>
   <path d="m1147.2 712.8l0.3 0.2 0.3 0.2 0.2 0.3 0.2 0.3 0.3 0.2 0.5 1 0.5 1 0.3 0.2 0.2 0.3 0.2 0.3 0.3 0.2 0.3 0.2 0.2 0.3-103 0.5q-103 0.5-126.5 0.5h-23.5l1.5 0.5 1.5 0.5v0.5l-5.5-0.2-5.5-0.3 0.2-0.3 0.3-0.2 0.5-1.5 0.5-1.5 0.5-1.5q0.5-1.5 5.2-13.5l4.8-12 1-0.2 1-0.3 0.2-0.3 0.3-0.2 0.5-1.5 0.5-1.5 0.5-1 0.5-1 9.5-26.5q9.5-26.5 10.8-29.3 1.2-2.7 11.2-7.7t27.5-8 58.5-2.5 57 6 25.2 11.8q9.3 6.2 24.3 44.7t15.7 39.7q0.8 1.3 1 1.6z"/>
   <path d="m851.2 712.8l0.3 0.2 0.3 0.2 0.2 0.3 0.2 0.3 0.3 0.2 0.5 1 0.5 1 0.3 0.2 0.2 0.3 0.2 0.3 0.3 0.2 0.3 0.2 0.2 0.3-103.5 0.3q-103.5 0.2-103.7-0.8-0.3-1-0.6 0-0.2 1-25.2 0.8l-25-0.3 0.2-0.3 0.3-0.2 0.5-1.5 0.5-1.5 16-42q16-42 17.3-44.8 1.2-2.7 11.2-7.7t23-7.5 52.5-2.5 50 1.5 23 6.5 20.5 10.3q8 5.2 18.8 34.2 10.7 29 15.4 39.8 4.8 10.7 5 11z"/>
  </g>
  <g stroke="#323232" fill="#323232">
   <path d="m987 456l0.5 2 0.5 1 0.5 1 0.3-0.2 0.2-0.3 6.5-3.5q6.5-3.5 21.5-3.5t23.2 3.3q8.3 3.2 12.8 7.7t9 17 5.5 19.5 0.5 20-7 28.5-7.5 21 1 11.5 2.5 7.5l0.5 1.5 0.3 1.5 0.2 1.5-0.5-0.2-0.5-0.3-1-0.3-1-0.2 0.2 1 0.3 1v1h-1l-0.5-3q-0.5-3-1.8-9-1.2-6-5.2-6.2-4-0.3-35-0.3h-31l-0.2 0.3-0.3 0.2h-1.5v-2h1.5q1.5 0-3-13t-8.5-13.8q-4-0.7-21-0.7h-17l-1 0.3-1 0.2v-0.5l0.2-0.3 0.3-0.2 0.3-0.2 0.2-0.3 2-0.5 2-0.5-4-0.5-4-0.5v-0.5h44l-0.2-1.5-0.3-1.5-0.5-1.5-0.5-1.5-0.5-1.5q-0.5-1.5-2-7t-20.2-5.5q-18.8 0-21-6.5-2.3-6.5-3-6.5h-1q-0.3 0-1.3-9.5t-4.7-20l-3.8-10.5h0.5l0.3 0.2 0.2 0.3 0.2 0.3 0.3 0.2 1-7q1-7 3.5-12t9.8-10.8q7.2-5.7 11.2-7.7t16-1.5 18 3.5 9.2 7.7q3.3 4.8 4.3 7.3t1.5 4.5z"/>
   <path d="m754 431.2l1-0.2 0.8 1.5q0.7 1.5 1.4 0.7 0.8-0.7 13.8-0.2t13.5 0.2l0.5-0.2h0.2q0.3 0 0.6 0.5l0.2 0.5 0.2 1q0.3 1 0.6 0l0.2-1 5.2 5q5.3 5 8.3 14t3 24-4.5 25-4.5 17.5 2.7 15.3q2.8 7.7 5.3 8l2.5 0.2v0.5l0.2 0.3 0.3 0.2 0.3 0.2 0.2 0.3 1 0.3 1 0.2-0.2 1-0.3 1-0.3-0.2-0.2-0.3h-4v0.5l-2-0.2q-2-0.3-18-0.3t-17.2 1.7q-1.3 1.8-4.6 10.8l-3.2 9h-2l-0.2 2-0.3 2-0.5 2-0.5 2-0.3 0.2-0.2 0.3v0.5l-3-0.2q-3-0.3-34.5-0.6l-31.5-0.2v-0.2q0-0.3 0.2-0.6 0.3-0.2-1.7-6.7t-9.3-9.7q-7.2-3.3-14.7-4.6l-7.5-1.2v-0.5l1-0.5 1-0.5 0.2-0.3 0.3-0.2 0.3-0.2 0.2-0.3 0.2-0.3 0.3-0.2 0.3-0.2 0.2-0.3 0.2-0.3 0.3-0.2 0.3-0.5 0.2-0.5 2 0.2 2 0.3 5 2q5 2 6.5 2.5l1.5 0.5 1 0.5 1 0.5 1 0.5 1 0.5h2l-0.2-0.3-0.3-0.2-0.5-1.5-0.5-1.5-0.5-1-0.5-1-0.5-1q-0.5-1-3.5-11t-4.3-19.5l-1.2-9.5h-11v-0.5l4-0.5q4-0.5 5-1l1-0.5-2-0.5q-2-0.5 0-0.8l2-0.2v-5l-3-0.2-3-0.3 3-0.5 3-0.5-1-0.5-1-0.5v-0.5h4l0.8-5.5q0.7-5.5 3.4-11.7 2.8-6.3 13.8-14.8t15-10.5 16.5-2.7q12.5-0.8 14-3.6 1.5-2.7 11-9.7t10.5-7.3z"/>
   <path d="m419.2 384.5l0.8-0.5 0.2 34q0.3 34 0.6 35 0.2 1 11.7 1.2 11.5 0.3 14 0.8t4 0.8l1.5 0.2v0.5l5.8 4.3q5.7 4.2 8.2 7.7t3 4.5 1 2 2 4.5 2.5 5.5 3.5 12.5 3 19l0.5 8.5 0.5 1 0.5 1h0.5l-1.2 5.5q-1.3 5.5-1.8 6.5l-0.5 1-0.3 1.5-0.2 1.5h41l-0.2-4-0.3-4-0.3-1-0.2-1 0.5-0.2 0.5-0.3 0.2-0.3 0.3-0.2h0.5l0.2 1 0.3 1 0.5 1.5 0.5 1.5 0.5 1 0.5 1 0.7 1.8q0.8 1.7 1.3 2l0.5 0.2v0.5l-0.2 0.3-0.3 0.2-0.3 0.2-0.2 0.3-0.2 0.3-0.3 0.2-0.3 0.2-0.2 0.3 0.2 0.3 0.3 0.2 0.3 0.2 0.2 0.3 2 0.5 2 0.5 10.5 4q10.5 4 11.5 4.5l1 0.5 0.2 0.3 0.3 0.2 0.3 0.5 0.2 0.5-1.2 2.5q-1.3 2.5-1.6 3.5l-0.2 1v0.5l-0.2 0.3-0.3 0.2-0.5 1-0.5 1-0.5 1-0.5 1-4.7 8.2q-4.8 8.3-9.6 10.6-4.7 2.2-5 2.4l-0.2 0.3-1 0.5-1 0.5-1 0.5-1 0.5-1 0.5-1 0.5-0.2 0.3-0.3 0.2-0.3 0.5-0.2 0.5-1 0.2-1 0.3-1 0.5-1 0.5-1 0.5-1 0.5-1 0.5-1 0.5-1 0.5q-1 0.5-4 2t-5 5.8q-2 4.2-8.5 2-6.5-2.3-12.5-3-6-0.8-10.2-13.8-4.3-13-5.6-13h-1.2l-1-0.2q-1-0.3-2-0.8t-34.5-0.8q-33.5-0.2-34 0.8l-0.5 1h-0.8q-0.7 0-7.2 11.5t-7 12.5l-0.5 1-0.3 0.2-0.2 0.3-2 0.5-2 0.5-1 0.5-1 0.5h-2l-0.2-0.3q-0.3-0.2-2-5.2-1.8-5-19.8-12.8-18-7.7-24.8-9.4-6.7-1.8-10.4-14.3l-3.8-12.5 0.2-3 0.3-3 0.3-0.2 0.2-0.3h16q16 0 23 0h7l1-0.3 1-0.2v-3l6.5 2.2q6.5 2.3 8 2.8l1.5 0.5 1 0.5 1 0.5 1 0.3 1 0.2-0.2-6q-0.3-6-0.8-30.5t0.2-27.7q0.8-3.3 2-1.6 1.3 1.8 4.3-3.7l3-5.5 0.3-0.2 0.2-0.3 0.2-0.3 0.3-0.2 0.3-1 0.2-1h-7v-1l2.5-0.2 2.5-0.3 2.5-0.5q2.5-0.5 8-4t13-7.2q7.5-3.8 7.3-22.8-0.3-19 1.2-35t2.2-16.5z"/>
  </g>
  <path d="m362 604l1 0.5 0.2 0.3 0.3 0.2 0.3 0.2 0.2 0.3 0.2 0.3 0.3 0.2 0.5 2 0.5 2 0.3 0.2 0.2 0.3-0.2 0.3-0.3 0.2-0.3 0.2-0.2 0.3-1 0.5-1 0.5-0.2 0.3-0.3 0.2-12 6.5q-12 6.5-20.5 31.5t-8.8 25h-0.2l-0.2-1-0.3-1-0.3-0.2-0.2-0.3h-18q-18 0-27.5 0.3l-9.5 0.2v4h-0.5l-0.5-1-0.5-1-0.3-0.2q-0.2-0.3-10.4-24-10.3-23.8-16.6-27-6.2-3.3-23.2-10.8l-17-7.5-2-0.3-2-0.2 0.2-2 0.3-2 0.3-1 0.2-1v-2l1-0.2 1-0.3 1-0.5 1-0.5 7.5-4q7.5-4 22-6.5t53.5-2 53.5 6 21 9.5 7.5 4.5z" stroke="#656565" fill="#656565"/>
  <path d="m186 598.5l0.5 1.5 0.5 1.5 0.5 1.5 0.5 1 0.5 1 0.3-0.2 0.2-0.3 0.2-0.3 0.3-0.2 0.5-1.5 0.5-1.5 0.3-1 0.2-1h0.5l0.3 0.2 0.2 0.3 0.5 0.3 0.5 0.2-0.2 1-0.3 1-0.3 2-0.2 2 2 0.2 2 0.3 17 7.5q17 7.5 23.2 10.8 6.3 3.2 16.6 27 10.2 23.7 10.4 24l0.3 0.2 0.5 1 0.5 1h0.5l0.2 1 0.3 1 7.5 17q7.5 17 8 18l0.5 1 0.5 1.5 0.5 1.5v2l-0.3 0.2-0.2 0.3-86 0.5q-86 0.5-131.5 0.2l-45.5-0.2v-0.5l1-0.5 1-0.5h25.5q25.5 0 128.5-0.5l103-0.5-1-0.5-1-0.5-0.2-0.3-0.3-0.2-0.5-1-0.5-1-0.3-0.2-0.2-0.3-0.2-0.3q-0.3-0.2-3.8-8.2t-15.5-39.5-16.5-35-14.2-8.7q-9.8-5.3-22.8-8.8t-52.5-4-56 2-23.5 6l-7 3.5-1 0.5-1 0.5-1 0.5-1 0.5-0.2 0.3-0.3 0.2-0.3 0.2-0.2 0.3-0.2 0.3-0.3 0.2-0.3-1-0.2-1 0.2-0.5 0.3-0.5h0.5l0.5-0.2 0.5-0.3 0.2-0.3 0.3-0.2h0.5l0.5-0.2 0.5-0.3 0.2-0.3 0.3-0.2h0.5l0.5-0.2 0.5-0.3v-0.5l0.5-0.2q0.5-0.3 5.7-3 5.3-2.8 13.6-7 8.2-4.3 13.4-13.6l5.3-9.2 0.5-1 0.5-1 0.5-1 0.5-1 0.5-1 0.5-1 0.3-0.2 0.2-0.3 0.2-0.3 0.3-0.2 0.3-0.2 0.2-0.3v-0.5h0.5v2l-0.5 1.5-0.5 1.5-0.5 1.5-0.5 1.5-2 6q-2 6-2.5 7.5l-0.5 1.5-0.5 1-0.5 1-0.3 1-0.2 1 37.5 0.2q37.5 0.3 42.5 0.6l5 0.2-0.2-3q-0.3-3-2.6-14-2.2-11-4.2-11.2-2-0.3-34-0.6-32-0.2-32.5-1.7l-0.5-1.5-7.8-22.5q-7.7-22.5-8.7-26.5t-0.5-19.5 3.8-23.3q3.2-7.7 14.2-16.2t15.5-10.5 18.5-2 22.5 3 13.3 7.7q4.7 4.8 8.7 14.3t6 25 1.5 22-7.5 23.5-7 24.5 2.5 15 3 9z" stroke="#323232" fill="#323232"/>
  <path d="m343.5 262.2l0.5-0.2-0.2 1.5q-0.3 1.5-10.8 21t-10.8 19.7l-0.2 0.3-0.2 0.3-0.3 0.2-0.3 1-0.2 1 4.5 1.2q4.5 1.3 11.5 5.8t8.8 6.2q1.7 1.8 1 4.3-0.8 2.5-3.6 4.5-2.7 2 5.3 22.5t13.5 33 6 13.5l0.5 1 0.5 1 0.5 1 0.5 1 0.5 1 0.3 0.2q0.2 0.3 0.7 0.6l0.5 0.2h0.5l0.3 0.5 0.2 0.5h-0.2q-0.3 0-0.6 0.5l-0.2 0.5 1.2 6q1.3 6 1.3 21v15h0.5l0.2 4.5q0.3 4.5 0.6 11.5l0.2 7-7.5-0.2q-7.5-0.3-9-0.6-1.5-0.2-3.7-10.2-2.3-10-6.8-17t-12.8-9.8q-8.2-2.7-9-22-0.7-19.2-5.2-51.2l-4.5-32-0.5-2.5-0.5-2.5-0.5-1.5-0.5-1.5v7l4 31.5q4 31.5 2.3 51.5-1.8 20-8.3 20.8-6.5 0.7-12 4.2t-5.7 3.8l-0.3 0.2-0.3 0.2-0.2 0.3-0.2 0.3-0.3 0.2-0.3 0.2-0.2 0.3-1 0.5-1 0.5-1 0.3-1 0.2 0.2-8.5q0.3-8.5 0.8-25.5l0.5-17h-0.5l0.2-7.5q0.3-7.5 2.3-25.5t8.5-50 8-33 17.2-6.5l15.8-5.5v-0.2q0-0.3 0.5-0.6z" stroke="#656565" fill="#656565"/>
  <path d="m274 442.2l13-0.2 1.5 1.2q1.5 1.3 7.7 3.6 6.3 2.2 9.3 6.2t7 13 6 18 1.5 20-1 12.5-0.8 3l-0.2 1.5-2.8 6.5q-2.7 6.5-3.2 7.5l-0.5 1-0.5 1.5-0.5 1.5-0.5 1-0.5 1-0.3 0.2-0.2 0.3 1 0.5 1 0.5 19 0.3 19 0.2-0.2-1.5q-0.3-1.5-0.8-4.5l-0.5-3-0.3-2-0.2-2h1.5l0.5 1.5 0.5 1.5 0.5 1.5 0.5 1.5 0.5 1.5 0.5 1.5 0.5 1 0.5 1 0.3 1 0.2 1h4v3l-1 0.2-1 0.3h-7q-7 0-23 0h-16l-0.2 0.3-0.3 0.2-0.3 3-0.2 3-0.8-0.5q-0.7-0.5 0.3 10t1.5 13l0.5 2.5 0.3 0.2 0.2 0.3-38 0.3-38 0.2 0.2-1 0.3-1 0.5-1 0.5-1 0.5-1.5q0.5-1.5 2-6.5l1.5-5 0.5-1.5 0.5-1.5 0.5-1 0.5-1v-2h-0.5l0.2-0.5q0.3-0.5 1.6-1.3 1.2-0.7-1.6-8-2.7-7.2-7.7-22.2t-5.5-28.5 1.5-22 9.5-15 14.8-10.7q7.2-4.3 20.2-4.6z" stroke="#323232" fill="#323232"/>
  <g stroke="#656565" fill="#656565">
   <path d="m654 601l1 0.5 0.2 0.3 0.3 0.2 0.3 0.2 0.2 0.3 1 0.5 1 0.5 1 0.5 1 0.5 0.2 0.3 0.3 0.2v1l-0.3 0.2-0.2 0.3-0.2 0.3-0.3 0.2-0.3 0.2-0.2 0.3-1 0.5-1 0.5-13.8 7.7q-13.7 7.8-21.2 30.3t-8 24l-0.5 1.5-0.3 0.2-0.2 0.3-0.5 0.3-0.5 0.2v-3l-29.5 0.2-29.5 0.3-1.5 0.3-1.5 0.2v2l-0.5-0.2q-0.5-0.3-10.3-23-9.7-22.8-21.4-28.6l-11.8-5.7-1-0.3-1-0.2 0.2-1.5 0.3-1.5 0.5-2 0.5-2 0.3-1 0.2-1 3.5-1.8q3.5-1.7 4.5-2.2l1-0.5 0.2-0.3 0.3-0.2 0.3-0.2 0.2-0.3 1-0.5 1-0.5 0.2-0.3 0.3-0.2 0.3-0.2 0.2-0.3 1-0.5 1-0.5 0.2-0.3 0.3-0.2h0.5l0.5-0.2 0.5-0.3 16-2.5q16-2.5 53-2t49 4.5 13 4.5z"/>
   <path d="m394.2 252l-0.2-1 1 0.2 1 0.3 0.2 0.3 0.3 0.2 3.3 4.8q3.2 4.7 17.2 4.7t17.2 3.3q3.3 3.2 15.8 36.2t16.2 34.8q3.8 1.7 8.8 1.2t5.2-0.8l0.3-0.2 0.3-0.2 0.2-0.3 0.2-0.3 0.3-0.2 0.3-0.2 0.2-0.3 0.2-0.3 0.3-0.2 0.3-0.2 0.2-0.3 0.2-0.3 0.3-0.2 0.3-0.2 0.2-0.3 0.2-0.3 0.3-0.2 0.3-0.2 0.2-0.3h2v0.5l-0.2 0.5-0.3 0.5h-0.5l-0.2 0.5-0.3 0.5h-0.5l-0.2 0.5-0.3 0.5-0.3 0.2-0.2 0.3-0.2 0.3-0.3 0.2-0.3 0.2-0.2 0.3-1 0.5-1 0.5-3.5 2q-3.5 2-3 1.5t-0.7-0.2q-1.3 0.2-3.3 7.2t-2.5 11.5-0.8 4.5h-0.2l-0.2-0.5-0.3-0.5 0.5 13q0.5 13 2.8 20.2 2.2 7.3 4.7 7.3h2.5l0.2-0.3 0.3-0.2 0.3-0.2 0.2-0.3 0.2-0.3 0.3-0.2 0.5 1 0.5 1 0.5-1 0.5-1h0.5l-0.2 2-0.3 2-0.5 1-0.5 1-0.5 1-0.5 1-0.3 0.2-0.2 0.3-0.2 0.3-0.3 0.2-0.3 0.2-0.2 0.3-0.2 0.3-0.3 0.2-0.3 0.2-0.2 0.3-1 0.5-1 0.5h-3q-3 0-5-1t-9.2-6.7q-7.3-5.8-12-13.6-4.8-7.7-11.6-20.4l-6.7-12.8-0.5-1.5-0.5-1.5-0.3-2-0.2-2h-2l-0.2 2.5-0.3 2.5-1 11.5q-1 11.5-1.3 13.5l-0.2 2-0.8 0.5q-0.7 0.5-2.2 16.5t-1.2 35q0.2 19-7.3 22.8-7.5 3.7-13 7.2t-8 4l-2.5 0.5-2.5 0.3-2.5 0.2h-4l-0.2-7q-0.3-7-0.6-11.5l-0.2-4.5 0.2-10.5q0.3-10.5 0.3-14t2-11.5 6-36.5 6.7-67.5l2.8-39h-1q-1 0-1.2 2l-0.3 2-0.3-2-0.2-2 0.2-2q0.3-2 0.6-4l0.2-2h0.5l0.3 0.2 0.2 0.3 0.2 0.3 0.3 0.2 0.5 1 0.5 1 0.3-0.2 0.2-0.3 0.2-0.3 0.3-0.2 0.3-0.2 0.2-0.3 0.2-0.3 0.3-0.2v-3q0-2 0-3.5v-1.5l-0.3-0.2-0.2-0.3-0.2-0.3-0.3-0.2-0.3-1zm83.8 154q1 0 1 1t-1 1-1-1 1-1z"/>
   <path d="m946 605l1 0.5 1 0.5 1 0.5 0.2 0.3 0.3 0.2 0.3 0.2 0.2 0.3 1 0.5 1 0.5-0.2 0.3-0.3 0.2-0.3 0.2-0.2 0.3-1 0.5-1 0.5-0.2 0.3-0.3 0.2-0.3 0.2-0.2 0.3-12 6.3q-12 6.2-19.8 30.2-7.7 24-8.2 25l-0.5 1h-0.5l-0.2-1.5-0.3-1.5-0.3-0.2-0.2-0.3-0.2-0.3-0.3-0.2-0.3 0.2-0.2 0.3-0.2 0.3-0.3 0.2-0.3-0.2-0.2-0.3h-61l-0.2 0.3-0.3 0.2-0.3 1-0.2 1-0.5-0.2q-0.5-0.3-10.7-24-10.3-23.8-21-29l-10.8-5.3-1-0.5-1-0.5-1-0.5-1-0.5-0.2-0.3-0.3-0.2-0.3-0.2-0.2-0.3 0.2-0.3 0.3-0.2 0.5-1 0.5-1 0.3-0.2 0.2-0.3 0.2-0.3 0.3-0.2 0.3-0.2 0.2-0.3 1-0.5 1-0.5 7-4q7-4 24.5-6.5t54-1.5 47.5 5 12 4.5 2 1z"/>
  </g>
  <g stroke="#323232" fill="#323232">
   <path d="m580 452.2l4-0.2v0.5l1.5 0.5 1.5 0.5 12 2.5q12 2.5 16.2 7.8 4.3 5.2 8.8 17.2t5.5 25 0 17-0.7 4.5l0.2 0.5-0.2 0.5-0.3 0.5h-0.5l-2.2 5q-2.3 5-2.8 6.5l-0.5 1.5-0.5 1-0.5 1-0.3 2-0.2 2 8 0.2q8 0.3 15 0.3h7v-0.5h0.5l0.5-1.5 0.5-1.5 0.3 0.2 0.2 0.3 0.5 0.3 0.5 0.2v0.5l0.2 0.3 0.3 0.2 0.3 0.2 0.2 0.3 1 0.3 1 0.2-0.2 0.5-0.3 0.5-0.3 0.2-0.2 0.3-0.2 0.3-0.3 0.2-0.3 0.2-0.2 0.3-0.2 0.3-0.3 0.2-0.3 0.2-0.2 0.3-1 0.5-1 0.5v0.5l-1.5-0.2q-1.5-0.3-16.5-0.6l-15-0.2-0.8 4.5q-0.7 4.5-0.4 6l0.2 1.5h-0.5l-0.3-1-0.2-1-1 0.2-1 0.3v0.5l-4.5-0.2q-4.5-0.3-30-0.8t-26.5-2.2l-1-1.8-0.2-0.5-0.3-0.5-0.3-0.2-0.2-0.3-1-0.5q-1-0.5-11.5-4.5l-10.5-4-2-0.5-2-0.5-0.2-0.3-0.3-0.2-0.3-0.2-0.2-0.3 0.2-0.3 0.3-0.2 0.3-0.2 0.2-0.3 0.2-0.3 0.3-0.2 0.3-0.2 0.2-0.3v-0.5l3.5 0.2 3.5 0.3 4.5 2q4.5 2 6 2.5l1.5 0.5 1 0.5 1 0.5 1 0.5 1 0.5 1 0.3 1 0.2-0.2-1.5-0.3-1.5-0.5-1-0.5-1-0.5-1-0.5-1-0.5-1.5q-0.5-1.5-1.5-3.5t-4.7-16q-3.8-14-5.3-14h-1.5v-0.5l0.2-0.3 0.3-0.2v-1l-0.3-0.2-0.2-0.3-0.2-0.3-0.3-0.2-0.3-0.2-0.2-0.3-1-0.5-1-0.5 1-0.5 1-0.5 0.2-0.3 0.3-0.2 0.3 0.2 0.2 0.3 0.2 0.3 0.3 0.2 0.3-1 0.2-1-2.5-0.2q-2.5-0.3-1-0.8t-1.5-0.8l-3-0.2v-3h10l0.2-1.5 0.3-1.5 1-6q1-6 3.5-11t10.8-11.8q8.2-6.7 12.7-9.2t7-3 6.5-0.8z"/>
   <path d="m908 466l0.5 1 0.3 0.2 0.2 0.3 0.2 0.3 0.3 0.2 0.5 1 0.5 1 0.3 0.5 0.2 0.5 3.8 10.5q3.7 10.5 4.7 20t1.3 9.5h0.2l-0.2 7q-0.3 7-0.8 8.5l-0.5 1.5-0.5 1.5-0.5 1.5-0.5 1-0.5 1-0.3 1-0.2 1h2l0.2-1.5 0.3-1.5 0.3-0.2q0.2-0.3 0.4-0.6l0.3-0.2 0.5-1 0.5-1 0.3-1 0.2-1h2l-0.2 1-0.3 1-0.5 1.5-0.5 1.5-1 3.5q-1 3.5-1.5 5l-0.5 1.5-0.3 0.2-0.2 0.3-0.2 0.3-0.3 0.2-0.3 0.2-0.2 0.3 4 0.3 4 0.2v0.5l4 0.5 4 0.5-2 0.5-2 0.5-0.2 0.3-0.3 0.2-0.3 0.2-0.2 0.3v0.5l-5 0.2q-5 0.3-10.2 1.6-5.3 1.2-6.3 8.7l-1 7.5 0.3 0.5 0.2 0.5-0.5 0.2-0.5 0.3-0.2 0.3-0.3 0.2h-0.5l-0.2-1q-0.3-1-30.6-2.5l-30.2-1.5-7.8-21.5q-7.7-21.5-7.7-38.5t3-23 12.3-13.2q9.2-7.3 13.2-9.3t17.5-2 21 3 9.7 4.7q2.3 1.8 2.8 2.8z"/>
  </g>
  <g stroke="#656565" fill="#656565">
   <path d="m618.2 556.5l0.8-4.5 15 0.2q15 0.3 16.5 0.6l1.5 0.2 7.5 1.2q7.5 1.3 14.7 4.6 7.3 3.2 9.6 10.2 2.2 7 33.2 7.2 31 0.3 34 0.6l3 0.2 2.8 11.5q2.7 11.5 3 13.5l0.2 2h-84l0.2-1.5 0.3-1.5 0.5-1 0.5-1 0.5-2q0.5-2 2.5-8l2-6 0.5-1.5 0.5-1.5 0.5-1 0.5-1 0.3-0.2 0.2-0.3h-2l-0.2 0.3-0.3 0.2-0.3 0.2-0.2 0.3-0.2 0.3-0.3 0.2-0.3 0.2-0.2 0.3-0.2 0.3-0.3 0.2-0.5 1-0.5 1-0.5 1-0.5 1-0.5 1q-0.5 1-4.5 8.5t-5.7 7.7q-1.8 0.3-13.8-5.2t-20-7.5-11.2-10.7l-3.3-8.8-0.5-1.5-0.5-1.5-0.3-1-0.2-1-0.2-1.5q-0.3-1.5 0.4-6z"/>
   <path d="m801 546.8l2 0.2 1.5 0.2 1.5 0.3 1.5 0.5q1.5 0.5 6 2t14.7 7.2q10.3 5.8 10.8 8.3t-5.2 13q-5.8 10.5-23.8 19.5t-18.5 10.8q-0.5 1.7-5.5-0.3t-12-3.5-12-15.5l-5-14-0.2-0.3-0.3-0.2-0.3-0.2-0.2-0.3 0.2-0.3 0.3-0.2 0.5-2 0.5-2 0.3-1 0.2-1 3.2-9q3.3-9 4.6-10.8 1.2-1.7 17.2-1.7t18 0.3z"/>
  </g>
  <path d="m483.5 430.2l1.5-0.2v0.5l1 0.5q1 0.5 8 1l7 0.5h2.5q2.5 0 2.5-0.3v-0.2l5.5 2.8q5.5 2.7 8.7 7 3.3 4.2 6.3 15.2t2.5 23-1 13.5l-0.5 1.5v2h0.5v3l3 0.2q3 0.3 1.5 0.8t1 0.8l2.5 0.2-0.2 1-0.3 1-0.3-0.2-0.2-0.3-0.2-0.3-0.3-0.2-0.3 0.2-0.2 0.3-1 0.5-1 0.5 1 0.5 1 0.5 0.2 0.3 0.3 0.2 0.3 0.2 0.2 0.3 0.2 0.3 0.3 0.2v1l-0.3 0.2-0.2 0.3v0.5h-15l-0.8 6.5q-0.7 6.5-0.2 9l0.5 2.5 0.5 2 0.5 2 0.3 0.5 0.2 0.5h-0.5l-0.3 0.2-0.2 0.3-0.5 0.3-0.5 0.2-0.2-1.5-0.3-1.5-0.5-2.5q-0.5-2.5-0.8-4-0.2-1.5-17.2-2l-17-0.5v6h-0.5l-0.5-1-0.5-1-0.5-8.5q-0.5-8.5-3-19t-3.5-12.5-2.5-5.5-2-4.5-1-2-3-4.5-8.2-7.7l-5.8-4.3v-0.5h1q1 0 3-4.8 2-4.7 11.5-11.7t12-8 4-1.3z" stroke="#323232" fill="#323232"/>
  <path d="m930 547.8l1-0.3h17q17 0 21 0.7 4 0.8 8.5 13.8t3.5 13.2q-1 0.3-1 0.6v0.2l-0.5 0.2q-0.5 0.3-0.5 0.6v0.2l-0.2 0.5q-0.3 0.5-7.3 12.5t-10.7 13.8q-3.8 1.7-19.8-5.3t-21.5-7.7q-5.5-0.8-9-12.3l-3.5-11.5-0.2-0.5-0.3-0.5 1-7.5q1-7.5 6.3-8.7 5.2-1.3 10.2-1.6l5-0.2 1-0.2z" stroke="#656565" fill="#656565"/>
  <path d="m315.5 323.5v-3.5l0.5 1.5 0.5 1.5 0.5 2.5 0.5 2.5 4.5 32q4.5 32 5.2 51.2 0.8 19.3 9 22 8.3 2.8 12.8 9.8t6.8 17q2.2 10 3.7 10.2 1.5 0.3 9 0.6l7.5 0.2h4v1.5l-10.5 0.7q-10.5 0.8-11.3 9.3-0.7 8.5-5.7 20t-5 17.5v6l0.3 2 0.2 2h-1l-0.2-1.5-0.3-1.5-0.5-2q-0.5-2-14.2-3l-13.8-1 0.2-1.5q0.3-1.5 0.8-3t1-12.5-1.5-20-6-18-7-13-9.3-6.2q-6.2-2.3-7.7-3.6l-1.5-1.2 0.2-4q0.3-4 1.8-25l1.5-21 0.3-0.2 0.2-0.3v-0.5h0.5l-0.5 17q-0.5 17-0.8 25.5l-0.2 8.5 1-0.2 1-0.3 1-0.5 1-0.5 0.2-0.3 0.3-0.2 0.3-0.2 0.2-0.3 0.2-0.3 0.3-0.2 0.3-0.2q0.2-0.3 5.7-3.8t12-4.2q6.5-0.8 8.3-20.8 1.7-20-2.3-51.5l-4-31.5v-3.5z" stroke="#323232" fill="#323232"/>
  <g stroke="#fefefe" fill="#fefefe">
   <path d="m765.8 121l0.2 1h-0.2q-0.3 0-0.3 5t-0.7 6.2q-0.8 1.3-141.3 1.6l-140.5 0.2-0.2-1-0.3-1-0.5-2-0.5-2-0.5-2.5-0.5-2.5h-0.5l0.2-1 0.3-1 0.5-1.5 0.5-1.5 0.3-0.2 0.2-0.3 66-0.5q66-0.5 65.5-1t5.5-0.2q6 0.2 6 1.2t49.5 0.8q49.5-0.3 70.3 0.4 20.7 0.8 21 1.8z"/>
   <path d="m422.8 354.5l0.2-2.5h2l0.2 2 0.3 2 0.5 1.5 0.5 1.5 6.7 12.8q6.8 12.7 11.6 20.4 4.7 7.8 12 13.6 7.2 5.7 9.2 6.7t5 1h3l1-0.5 1-0.5 0.2-0.3 0.3-0.2 0.3-0.2 0.2-0.3 0.2-0.3 0.3-0.2 0.3-0.2 0.2-0.3 0.2-0.3 0.3-0.2 0.5-1 0.5-1 0.5-1 0.5-1 0.3-2 0.2-2-0.2-16q-0.3-16-0.6-16.2l-0.2-0.3v-1l0.5-0.3 0.5-0.2 1-0.2 1-0.3v-0.5h-1v-1.5l0.5-0.3 0.5-0.2 1-0.2 1-0.3 0.2-0.3 0.3-0.2 0.3-0.2 0.2-0.3 0.2-0.3 0.3-0.2-0.5 27.5q-0.5 27.5-0.8 33.5l-0.2 6-1.5 0.2q-1.5 0.3-4 1.3t-12 8-11.5 11.7q-2 4.8-3 4.8h-1l-1.5-0.2q-1.5-0.3-4-0.8t-14-0.8q-11.5-0.2-11.7-1.2-0.3-1-0.6-35l-0.2-34 0.2-2q0.3-2 1.3-13.5l1-11.5 0.3-2.5z"/>
  </g>
  <g stroke="#656565" fill="#656565">
   <path d="m462.5 578.8l1.5 0.2v0.2q0 0.3 0.5 0.6l0.5 0.2 1.8 10.5q1.7 10.5 2 13l0.2 2.5h-84l0.2-1 0.3-1 0.5-1.5 0.5-1.5 0.5-1.5q0.5-1.5 3.2-10.5l2.8-9 0.5-1q0.5-1 34-0.8 33.5 0.3 35 0.6z"/>
   <path d="m108 576v-1l0.5 1.5q0.5 1.5 32.5 1.7 32 0.3 34 0.6 2 0.2 4.2 11.2 2.3 11 2.6 14l0.2 3-5-0.2q-5-0.3-42.5-0.6l-37.5-0.2 0.2-1 0.3-1 0.5-1 0.5-1 0.5-1.5q0.5-1.5 2.5-7.5l2-6 0.5-1.5 0.5-1.5 0.5-1.5 0.5-1.5v-2h-0.5l0.2-0.5q0.3-0.5 1.6-1 1.2-0.5 1.2-1.5z"/>
  </g>
  <path d="m660 493l-0.5 2-0.3 1-0.2 1h6v0.5l1 0.5 1 0.5-3 0.5-3 0.5 3 0.3 3 0.2v5l-2 0.2q-2 0.3 0 0.8l2 0.5-1 0.5q-1 0.5-5 1l-4 0.5v0.5h-2q-2 0-4.2 9-2.3 9-0.8 14.5t2 6.5l0.5 1 0.5 1.5 0.5 1.5 0.3 1.5 0.2 1.5-0.5-0.2-0.5-0.3-0.2-0.3-0.3-0.2-0.5 1.5-0.5 1.5h-0.5l-0.2-1.5-0.3-1.5-0.5-2.5q-0.5-2.5-1.8-8.5-1.2-6-10.2-6.2l-9-0.3v0.5l-0.2 0.5-0.3 0.5h-1v-2l0.5-1q0.5-1 1.5-4t0-16-5.5-25-8.8-17.2q-4.2-5.3-16.2-7.8l-12-2.5-1.5-0.5-1.5-0.5v-0.5l2.5-0.2 2.5-0.3 0.2-0.3 0.3-0.2 0.3-0.2 0.2-0.3 0.2-0.3 0.3-0.2 0.3-0.2 0.2-0.3 8.5-6q8.5-6 13-7t14.5 0 15.8 4.3q5.7 3.2 8.2 6.7t5.5 14.5 3.5 20 0 11z" stroke="#323232" fill="#323232"/>
  <g stroke="#656565" fill="#656565">
   <path d="m1054 592l0.5 3h0.5l0.2 3 0.3 3 0.3 1.5 0.2 1.5h-85l0.2-1 0.3-1 0.5-1 0.5-1 0.5-1.5q0.5-1.5 3.8-11.5l3.2-10v-1l31.5 0.2q31.5 0.3 35.5 0.6 4 0.2 5.2 6.2 1.3 6 1.8 9z"/>
   <path d="m551.8 560.5l1.2-2.5 1 1.8q1 1.7 26.5 2.2t30 0.8l4.5 0.2h0.5l0.5 3.5 0.5 3.5 1 5q1 5 1.5 7.5l0.5 2.5v2l-0.3 0.2-0.2 0.3h-3.5q-3.5 0-37-0.3l-33.5-0.2 0.2-1 0.3-1 0.5-1 0.5-1 0.5-2q0.5-2 2-6.5l1.5-4.5 0.5-1 0.5-1 0.5-1.5 0.5-1.5v-2l-0.3 0.2-0.2 0.3-0.2 0.3-0.3 0.2-0.3 0.2-0.2 0.3-0.5 0.3-0.5 0.2 0.2-1q0.3-1 1.6-3.5z"/>
   <path d="m840.8 566l0.2-4 1 0.2q1 0.3 1.5 0.6l0.5 0.2 30.2 1.5q30.3 1.5 30.6 2.5l0.2 1 1.2 6.5q1.3 6.5 1.8 9.5l0.5 3 0.3 1.5 0.2 1.5-28-0.2q-28-0.3-37.5-0.8l-9.5-0.5 0.2-0.3 0.3-0.2 0.5-1.5 0.5-1.5 0.5-1.5q0.5-1.5 2.5-7.5t2.3-10z"/>
   <path d="m380 472.2v-0.2h7l-0.2 1-0.3 1-0.3 0.2-0.2 0.3-0.2 0.3-0.3 0.2-3 5.5q-3 5.5-4.3 3.7-1.2-1.7-2 1.6-0.7 3.2-0.2 27.7t0.8 30.5l0.2 6-1-0.2-1-0.3-1-0.5-1-0.5-1.5-0.5q-1.5-0.5-8-2.8l-6.5-2.2h-4l-0.2-1-0.3-1-0.5-1-0.5-1-0.5-1.5-0.5-1.5-0.5-1.5-0.5-1.5-0.5-1.5-0.5-1.5h-0.5l-0.2-2-0.3-2v-6q0-6 5-17.5t5.7-20q0.8-8.5 11.3-9.3l10.5-0.7v-0.3z"/>
  </g>
  <path d="m349 252l0.5-1 0.3 3.5 0.2 3.5 0.8 6.5q0.7 6.5 1.2 7t0.8 1.5l0.2 1h-1q-1 0-1.2-1l-0.3-1-0.5-1-0.5-1 1.5 18q1.5 18 10.5 63t9.5 46.5l0.5 1.5 0.3 2.5 0.2 2.5h0.5l0.3 0.5 0.2 0.5-0.2 1-0.3 1-0.3-0.2-0.2-0.3v-0.5l-0.5-0.2-0.5-0.3v-0.5l-0.2-1-0.3-1-0.5-1-0.5-1-0.5-1-0.5-1-0.5-1q-0.5-1-6-13.5t-13.5-33-5.3-22.5q2.8-2 3.6-4.5 0.7-2.5-1-4.3-1.8-1.7-8.8-6.2t-11.5-5.8l-4.5-1.2 0.2-1 0.3-1 0.3-0.2 0.2-0.3 0.2-0.3q0.3-0.2 9.8-17.7t10.2-20.5l0.8-3v-0.2q0-0.3 0.5-0.6l0.5-0.2v-0.2q0-0.3 0.8-1.6l0.7-1.2 0.5-1.5q0.5-1.5 1-2l0.5-0.5 0.5-1 0.5-1 0.5-1z" stroke="#b6b6b6" fill="#b6b6b6"/>
  <path d="m389.5 269.2l0.5-0.2 0.2 2 0.3 2 0.3-2q0.2-2 1.2-2h1l-2.8 39q-2.7 39-6.7 67.5t-6 36.5-2 11.5-0.3 14l-0.2 10.5h-0.5v-15q0-15-1-18.5t-1.7-6.5l-0.8-3h0.2q0.3 0 0.6 0.5l0.2 0.5v0.5l0.2 0.3 0.3 0.2 0.3-1 0.2-1-0.2-0.5-0.3-0.5h-0.5l-0.2-2.5-0.3-2.5-0.5-1.5q-0.5-1.5-9.5-46.5t-10.5-63l-1.5-18 0.5 1 0.5 1 0.3 0.2 0.2 0.3 0.5 0.3 0.5 0.2v0.5l0.5 0.3 0.5 0.2h0.5l2.7 2.8q2.8 2.7 12.3 2.7t14.3-3.7q4.7-3.8 5.4-5 0.8-1.3 1.3-1.6z" stroke="#2b2b2b" fill="#2b2b2b"/>
  <path d="m805 543.2v-0.2l17.5 7.5q17.5 7.5 17.7 8.5 0.3 1 0.6 2l0.2 1v0.2q0 0.3 0.5 0.6l0.5 0.2-2.8 9.5q-2.7 9.5-3.2 11l-0.5 1.5-0.5 1.5-0.5 1.5-0.3 0.2-0.2 0.3 9.5 0.5q9.5 0.5 37.5 0.8l28 0.2-0.2-1.5-0.3-1.5-0.5-3q-0.5-3-1.8-9.5l-1.2-6.5h0.5l0.3-0.2 0.2-0.3 0.5-0.3 0.5-0.2 3.5 11.5q3.5 11.5 9 12.3 5.5 0.7 21.5 7.7t19.8 5.3q3.7-1.8 10.7-13.8t7.3-12.5l0.2-0.5h1l-3.2 10q-3.3 10-3.8 11.5l-0.5 1.5-0.5 1-0.5 1-0.3 1-0.2 1h85l-0.2-1.5-0.3-1.5-0.3-3-0.2-3h0.5v-1l-0.3-1-0.2-1 1 0.2 1 0.3 0.5 0.3 0.5 0.2 2 5.2q2 5.3 9 6.8t27 10.2q20 8.8 38.8 52.3 18.7 43.5 19.2 45l0.5 1.5 0.5 1 0.5 1 0.3 2 0.2 2h-255v-0.5l-1.5-0.5-1.5-0.5h23.5q23.5 0 126.5-0.5l103-0.5-0.2-0.3-0.3-0.2-0.3-0.2-0.2-0.3-0.2-0.3-0.3-0.2-0.5-1-0.5-1-0.3-0.2-0.2-0.3-0.2-0.3-0.3-0.2-0.3-0.2q-0.2-0.3-1-1.6-0.7-1.2-15.7-39.7t-24.3-44.7q-9.2-6.3-25.2-11.8t-57-6-58.5 2.5-27.5 8-11.2 7.7q-1.3 2.8-10.8 29.3l-9.5 26.5-0.5 1-0.5 1-0.5 1.5-0.5 1.5-0.3 0.2-0.2 0.3-1 0.3-1 0.2v-0.5l0.2-0.3 0.3-0.2 0.5-1 0.5-1 0.5-2 0.5-2 0.5-1.5q0.5-1.5 1-3l0.5-1.5 0.3-1 0.2-1h0.5l0.5-1q0.5-1 8.2-25 7.8-24 19.8-30.2l12-6.3 0.2-0.3 0.3-0.2 0.3-0.2 0.2-0.3 1-0.5 1-0.5 0.2-0.3 0.3-0.2 0.3-0.2 0.2-0.3-1-0.5-1-0.5-0.2-0.3-0.3-0.2-0.3-0.2-0.2-0.3-1-0.5-1-0.5-1-0.5q-1-0.5-2-1t-12-4.5-47.5-5-54 1.5-24.5 6.5l-7 4-1 0.5-1 0.5-0.2 0.3-0.3 0.2-0.3 0.2-0.2 0.3-0.2 0.3-0.3 0.2-0.5 1-0.5 1-0.3 0.2-0.2 0.3 0.2 0.3 0.3 0.2 0.3 0.2 0.2 0.3 1 0.5 1 0.5 1 0.5 1 0.5 10.8 5.3q10.7 5.2 21 29 10.2 23.7 10.7 24l0.5 0.2 0.2 1 0.3 1 8.5 19q8.5 19 9 20.5l0.5 1.5 0.3 2 0.2 2h-267l0.2-1.5 0.3-1.5 0.5-1 0.5-1 0.5-1q0.5-1 8-20l7.5-19 0.3-1 0.2-1 0.5-0.2 0.5-0.3 0.2-0.3 0.3-0.2 0.5-1.5q0.5-1.5 8-24t21.2-30.3l13.8-7.7 1-0.5 1-0.5 0.2-0.3 0.3-0.2 0.3-0.2 0.2-0.3 0.2-0.3 0.3-0.2v-1l-0.3-0.2-0.2-0.3-1-0.5-1-0.5-1-0.5-1-0.5-0.2-0.3-0.3-0.2-0.3-0.2-0.2-0.3-1-0.5q-1-0.5-13-4.5t-49-4.5-53 2l-16 2.5-0.5 0.3-0.5 0.2-0.2-0.5-0.3-0.5h-0.5l0.2-0.5 0.3-0.5 0.3-0.2 0.2-0.3 1-0.5 1-0.5 1-0.5 1-0.5 1-0.5 1-0.5 0.2-0.3q0.3-0.2 5-2.4 4.8-2.3 9.6-10.6l4.7-8.2 0.5-1 0.5-1 0.5-1 0.5-1 0.3-0.2 0.2-0.3v-0.5l0.5-0.2 0.5-0.3 0.2-0.3 0.3-0.2 0.3-0.2 0.2-0.3 0.2-0.3 0.3-0.2v2l-0.5 1.5-0.5 1.5-0.5 1-0.5 1-1.5 4.5q-1.5 4.5-2 6.5l-0.5 2-0.5 1-0.5 1-0.3 1-0.2 1 33.5 0.2q33.5 0.3 37 0.3h3.5l0.2-0.3 0.3-0.2v-2l-0.5-2.5q-0.5-2.5-1.5-7.5l-1-5-0.5-3.5-0.5-3.5h-0.5v-0.5l1-0.3 1-0.2 0.2 1 0.3 1h0.5l0.2 1 0.3 1 0.5 1.5 0.5 1.5 3.3 8.8q3.2 8.7 11.2 10.7t20 7.5 13.8 5.2q1.7-0.2 5.7-7.7t4.5-8.5l0.5-1 0.5-1 0.5-1 0.5-1 0.5-1 0.3-0.2 0.2-0.3 0.2-0.3 0.3-0.2 0.3-0.2 0.2-0.3 0.2-0.3 0.3-0.2 0.3-0.2 0.2-0.3 0.2-0.3 0.3-0.2 0.3-0.2 0.2-0.3 0.5-0.3 0.5-0.2-0.2 1-0.3 1-0.5 1-0.5 1-0.5 1.5-0.5 1.5-2 6q-2 6-2.5 8l-0.5 2-0.5 1-0.5 1-0.3 1.5-0.2 1.5h84l-0.2-2q-0.3-2-3-13.5l-2.8-11.5v-0.5l0.2-0.3 0.3-0.2 0.5-2 0.5-2 0.3-2 0.2-2h2l-0.2 1-0.3 1-0.5 2-0.5 2-0.3 0.2-0.2 0.3 0.2 0.3 0.3 0.2 0.3 0.2 0.2 0.3 5 14q5 14 12 15.5t12 3.5 5.5 0.3q0.5-1.8 18.5-10.8t23.8-19.5q5.7-10.5 5.2-13t-10.8-8.3q-10.2-5.7-14.7-7.2t-6-2l-1.5-0.5-1.5-0.3-1.5-0.2v-0.5h4l0.2 0.3 0.3 0.2 0.3-1 0.2-1-1-0.2-1-0.3-0.2-0.3-0.3-0.2-0.3-0.2-0.2-0.3v-0.3zm46.2 169.6l0.3 0.2 0.3 0.2 0.2 0.3 0.2 0.3 0.3 0.2 0.5 1 0.5 1 0.3 0.2 0.2 0.3 0.2 0.3 0.3 0.2 0.3 0.2 0.2 0.3-103.5 0.3q-103.5 0.2-103.7-0.8-0.3-1-0.6 0-0.2 1-25.2 0.8l-25-0.3 0.2-0.3 0.3-0.2 0.5-1.5 0.5-1.5 16-42q16-42 17.3-44.8 1.2-2.7 11.2-7.7t23-7.5 52.5-2.5 50 1.5 23 6.5 20.5 10.3q8 5.2 18.8 34.2 10.7 29 15.4 39.8 4.8 10.7 5 11z" stroke="#030303" fill="#030303"/>
  <g stroke="#656565" fill="#656565">
   <path d="m968 536.5l0.5 1.5 0.5 1.5 0.5 1.5 0.3 1.5 0.2 1.5h-44l-4-0.2-4-0.3 0.2-0.3 0.3-0.2 0.3-0.2 0.2-0.3 0.2-0.3 0.3-0.2 0.5-1.5q0.5-1.5 1.5-5l1-3.5 0.3-1.5 0.2-1.5h-2l-0.2 1-0.3 1-0.3 0.2q-0.2 0.3-0.4 0.6l-0.3 0.2-0.3 1.5-0.2 1.5h-2l0.2-1 0.3-1 0.5-1 0.5-1 0.5-1.5 0.5-1.5 0.5-1.5q0.5-1.5 0.8-8.5l0.2-7h0.8q0.7 0 3 6.5 2.2 6.5 21 6.5 18.7 0 20.2 5.5t2 7z"/>
   <path d="m483 524v-3l17 0.5q17 0.5 17.2 2 0.3 1.5 0.8 4l0.5 2.5 0.3 1.5 0.2 1.5 0.2 1 0.3 1 0.3 4 0.2 4h-41l0.2-1.5 0.3-1.5 0.5-1q0.5-1 1.8-6.5l1.2-5.5v-3z"/>
  </g>
  <path d="m655 509h13l1.2 9.5q1.3 9.5 4.3 19.5t3.5 11l0.5 1 0.5 1 0.5 1 0.5 1.5 0.5 1.5 0.3 0.2 0.2 0.3h-2l-1-0.5-1-0.5-1-0.5-1-0.5-1.5-0.5q-1.5-0.5-6.5-2.5l-5-2-2-0.3-2-0.2-1-0.2-1-0.3-0.2-0.3-0.3-0.2-0.3-0.2-0.2-0.3v-0.5l-0.2-1.5-0.3-1.5-0.5-1.5-0.5-1.5-0.5-1q-0.5-1-2-6.5t0.8-14.5q2.2-9 4.2-9z" stroke="#fefefe" fill="#fefefe"/>
  <path d="m315.2 527.5l2.8-6.5 13.8 1q13.7 1 14.2 3l0.5 2 0.3 1.5 0.2 1.5 0.2 2 0.3 2 0.5 3q0.5 3 0.8 4.5l0.2 1.5-19-0.2-19-0.3-1-0.5-1-0.5 0.2-0.3 0.3-0.2 0.5-1 0.5-1 0.5-1.5 0.5-1.5 0.5-1q0.5-1 3.2-7.5z" stroke="#656565" fill="#656565"/>
  <path d="m307.2 552.5l0.8 0.5 3.8 12.5q3.7 12.5 10.4 14.3 6.8 1.7 24.8 9.4 18 7.8 19.8 12.8 1.7 5 2 5.2l0.2 0.3h2l1-0.5 1-0.5 2-0.5 2-0.5 0.2-0.3 0.3-0.2 0.5-1q0.5-1 7-12.5t7.2-11.5h0.8l-2.8 9q-2.7 9-3.2 10.5l-0.5 1.5-0.5 1.5-0.5 1.5-0.3 1-0.2 1h84l-0.2-2.5q-0.3-2.5-2-13l-1.8-10.5-0.2-0.5q-0.3-0.5-0.6-0.5h-0.2l0.5-0.8q0.5-0.7 1.7 0.6 1.3 1.2 5.6 14.2 4.2 13 10.2 13.8 6 0.7 12.5 3 6.5 2.2 8.5-2 2-4.3 5-5.8t4-2l1-0.5 1-0.5 1-0.5 1-0.5 1-0.5 1-0.5 1-0.5 1-0.3 1-0.2h0.5l0.3 0.5 0.2 0.5h-0.5l-0.3 0.2-0.2 0.3-1 0.5-1 0.5-0.2 0.3-0.3 0.2-0.3 0.2-0.2 0.3-1 0.5-1 0.5-0.2 0.3-0.3 0.2-0.3 0.2-0.2 0.3-1 0.5q-1 0.5-4.5 2.2l-3.5 1.8-0.2 1-0.3 1-0.5 2-0.5 2-0.3 1.5-0.2 1.5 1 0.2 1 0.3 11.8 5.7q11.7 5.8 21.4 28.6 9.8 22.7 10.3 23l0.5 0.2v0.5l0.2 0.3 0.3 0.2 0.5 1 0.5 1 8.5 19.5q8.5 19.5 9 20.5l0.5 1 0.3 2.5 0.2 2.5-86 0.2q-86 0.3-132.5 0.3h-46.5l-0.2-0.3-0.3-0.2v-2l0.5-1.5 0.5-1.5 0.5-1q0.5-1 7.5-20l7-19 0.3-0.2 0.2-0.3v-0.5h0.2q0.3 0 8.8-25t20.5-31.5l12-6.5 0.3-0.2 0.2-0.3 1-0.5 1-0.5 0.2-0.3 0.3-0.2 0.3-0.2 0.2-0.3-0.2-0.3-0.3-0.2-0.5-2-0.5-2-0.3-0.2-0.2-0.3-0.2-0.3-0.3-0.2-0.3-0.2-0.2-0.3-1-0.5q-1-0.5-7.5-4.5t-21-9.5-53.5-6-53.5 2-22 6.5l-7.5 4-1 0.5-1 0.5-1 0.3-1 0.2v2l-0.5-0.2-0.5-0.3-0.2-0.3-0.3-0.2h-0.5l0.2-0.5 0.3-0.5 0.3-0.2 0.2-0.3 0.2-0.3 0.3-0.2 0.3-0.2 0.2-0.3 1-0.5 1-0.5 1-0.5 1-0.5 1-0.5q1-0.5 2.2-1.2 1.3-0.8 14-7.6 12.8-6.7 17.6-15.4l4.7-8.8 0.5-1 0.5-1 0.3-0.2 0.2-0.3 0.2-0.3 0.3-0.2 0.3-0.2 0.2-0.3 0.2-0.3 0.3-0.2 0.5-1 0.5-1h1v2l-0.5 1-0.5 1-0.5 1.5-0.5 1.5-1.5 5q-1.5 5-2 6.5l-0.5 1.5-0.5 1-0.5 1-0.3 1-0.2 1 38-0.2 38-0.3-0.2-0.3-0.3-0.2-0.5-2.5q-0.5-2.5-1.5-13t-0.3-10zm252.8 161.5l0.5 1 0.3 0.2 0.2 0.3 0.2 0.3 0.3 0.2 0.5 1 0.5 1 0.3 0.2 0.2 0.3 0.2 0.3 0.3 0.2 0.3 0.2 0.2 0.3h-207l0.2-0.3 0.3-0.2 0.5-2.5q0.5-2.5 1-13.5l0.5-11-0.5-1.5-0.5-1.5-1 10.5q-1 10.5-1.3 15.5l-0.2 5h-49l0.2-1 0.3-1 0.5-1.5 0.5-1.5 15.5-41q15.5-41 16.2-44 0.8-3 10.8-8.2 10-5.3 30-8.3t60-2 53 5.5 24.2 11.8q11.3 7.2 22.8 37.7t15 38.5 4 9z" stroke="#030303" fill="#030303"/>
  <path d="m519.2 515.5l0.8-6.5h16.5q1.5 0 5.3 14 3.7 14 4.7 16t1.5 3.5l0.5 1.5 0.5 1 0.5 1 0.5 1 0.5 1 0.3 1.5 0.2 1.5-1-0.2-1-0.3-1-0.5-1-0.5-1-0.5-1-0.5-1.5-0.5q-1.5-0.5-6-2.5l-4.5-2-3.5-0.3-3.5-0.2-0.5-0.2q-0.5-0.3-1.3-2l-0.7-1.8-0.5-1-0.5-1-0.5-1.5-0.5-1.5-0.3-1-0.2-1-0.2-0.5-0.3-0.5-0.5-2-0.5-2-0.5-2.5q-0.5-2.5 0.2-9z" stroke="#fefefe" fill="#fefefe"/>
  <path d="m629 527.8v-0.3l9 0.3q9 0.2 10.2 6.2 1.3 6 1.8 8.5l0.5 2.5 0.3 1.5 0.2 1.5v0.5h-7q-7 0-15-0.3l-8-0.2 0.2-2 0.3-2 0.5-1 0.5-1 0.5-1.5q0.5-1.5 2.8-6.5l2.2-5h0.5l0.3-0.5 0.2-0.5v-0.2z" stroke="#656565" fill="#656565"/>
  <path d="m390 254.5l0.5 5.5 0.3 0.5 0.2 0.5-0.2 2q-0.3 2-0.6 4l-0.2 2-0.5 0.2q-0.5 0.3-1.3 1.6-0.7 1.2-5.4 5-4.8 3.7-14.3 3.7t-12.3-2.7l-2.7-2.8h-0.5l-0.2-0.5q-0.3-0.5-0.6-0.5h-0.2l-0.2-1q-0.3-1-1-7.5l-0.8-6.5h0.5l0.3-1.5 0.2-1.5 1 0.2 1 0.3 0.2 0.3 0.3 0.2 0.3 0.2 0.2 0.3 0.2 0.3 0.3 0.2v-3l-0.3-0.2-0.2-0.3-0.2-0.3-0.3-0.2-0.3-0.2-0.2-0.3-0.2-0.3-0.3-0.2-0.3-0.2-0.2-0.3-0.2-0.3q-0.3-0.2-2.6-2.4-2.2-2.3-7.4-13.6-5.3-11.2-5.8-9.7t-3-2-4.2-10.3q-1.8-6.7-1.8-8.4 0-1.8-1-2-1-0.3-5.2-8-4.3-7.8-5.3-14.8t1-10.5 0.3-5.3q-1.8-1.7-1.3-2.2l0.5-0.5 0.2-0.3 0.3-0.2 0.3-0.2 0.2-0.3 5-0.5q5-0.5 10.5-4t12.5-6.5 18-3 18.5 3 8 4.5 5.3 6.2q4.7 4.8 5.7 10.8t-1.5 15.5-3.5 11.5-0.3 4.2q0.8 2.3 0.6 14.6-0.3 12.2-3.8 21.2t-3 10 1 6.5z" stroke="#fdfdfd" fill="#fdfdfd"/>
  <path d="m765.8 122h0.2l0.2 129.5q0.3 129.5 1.6 153.7 1.2 24.3 8.7 25.8t8 1.8l0.5 0.2h0.2q0.3 0 0.6 0.5l0.2 0.5h1l-0.2 1q-0.3 1-1.6 0.2-1.2-0.7-14.2-1.7t-13.8-0.3q-0.7 0.8-2-0.2l-1.2-1h0.2q0.3 0 0.6-0.5l0.2-0.5 1-0.2q1-0.3 2-0.6 1-0.2 0.8-64.2-0.3-64 1.7-141l2-77-0.3-0.2-0.2-0.3-138-0.3-138-0.2 2.8 84q2.7 84 2.7 90.5v6.5h-0.5l-0.5 0.2-0.5 0.3v0.5h-2l-0.2-14q-0.3-14-1.8-95.5t-2.2-82.3q-0.8-0.7-2-4l-1.3-3.2-0.3-3-0.2-3h0.5l0.5 2.5 0.5 2.5 0.5 2 0.5 2 0.3 1 0.2 1 140.5-0.2q140.5-0.3 141.3-1.6 0.7-1.2 0.7-6.2t0.3-5z" stroke="#282828" fill="#282828"/>
  <path d="m492.2 422l-0.2 8 4.5 0.2 4.5 0.3 2 0.5q2 0.5 2.5 0.8l0.5 0.2v0.2q0 0.3-2.5 0.3h-2.5l-7-0.5q-7-0.5-8-1l-1-0.5v-0.5l0.2-6q0.3-6 0.8-33.5l0.5-27.5-0.3 0.2-0.2 0.3-0.2 0.3-0.3 0.2-0.3 0.2-0.2 0.3-0.2 0.3q-0.3 0.2-1 1.2l-0.8 1h-1v-1.5l0.5-0.3 0.5-0.2 1-1.2q1-1.3 1.2-1.6l0.3-0.2 0.3-0.2 0.2-0.3 0.2-0.3 0.3-0.2 0.3-0.2 0.2-0.3 0.2-0.3 0.3-0.2 0.3-0.2 0.2-0.3 0.2-0.3 0.3-0.2 0.3-0.2 0.2-0.3 0.2-0.3 0.3-0.2 0.3-0.2 0.2-0.3 0.2-0.3 0.3-0.2 0.3-0.2 0.2-0.3 0.2-0.3 0.3-0.2 3.7-3q3.8-3 1 0.5-2.7 3.5-3.2 32t-0.8 36.5z" stroke="#030303" fill="#030303"/>
  <path d="m467 376l-0.5-13 0.3 0.5 0.2 0.5 0.2 5.5q0.3 5.5 0.8 10l0.5 4.5 0.3 0.2 0.2 0.3 0.2 0.3 0.3 0.2 0.5-1 0.5-1 0.3-0.2 0.2-0.3 0.2-0.3 0.3-0.2 0.5-1 0.5-1 0.3-0.2 0.2-0.3 0.2-0.3 0.3-0.2 0.5-1q0.5-1 3.2-5l2.8-4v-0.5l0.5-0.3 0.5-0.2v-0.2q0-0.3 0.5-0.6l0.5-0.2h1l-0.8 1.5q-0.7 1.5-1 17.5l-0.2 16h-0.5l-0.7 3q-0.8 3-1.8 3t-0.8-1l0.3-1 0.5-1 0.5-1v-2l-0.3 0.2-0.2 0.3-0.2 0.3-0.3 0.2-0.3 0.2-0.2 0.3h-2.5q-2.5 0-4.7-7.3-2.3-7.2-2.8-20.2z" stroke="#020202" fill="#020202"/>
 </g>
</svg>
