<?xml version="1.0" encoding="UTF-8" standalone="no"?>
<svg viewBox="0 0 120 120" xmlns="http://www.w3.org/2000/svg">
<g transform="translate(-122.0625,8.125)">
<path d="m126.0625-1.125v106h112v-106z" fill="#fff"/>
<path d="m126.0625,13.875v106h112v-106h-112zm11.5,10.875h89v84.25h-89v-84.25z" fill="#00f" transform="translate(0,-15)"/>
<path d="m142.31621,61.3752c0-21.44794-.67475-21.54234 16.15812-21.28959 2.5137.03775 4.28647.28922 7.15438-.23234 6.86444-2.09059 15.41652-5.44009 15.41652-2.88237 0,3.3959-6.91321,5.34987-15.65445,8.60551l-8.2964.04422-.33446,3.52227c-.18395,1.93725-.95075,4.20156-1.70412,5.03181-2.14775,2.36708-2.68992,6.30696-1.24636,9.05726 1.24156,2.36541 1.13549,2.57611-1.77395,3.52227-2.31597.75319-3.73554,2.33464-5.64252,6.28619-1.40133,2.9039-2.89196,5.28143-3.31225,5.2834s-.76451-7.62491-.76451-16.94861zm43.38812-13.81376c-1.01555-1.00275-1.60159-3.3668-1.60159-6.46053v-4.87911l8.6614-5.36423c4.76373-2.95033 8.66211-5.70893 8.66304-6.13023s-3.65719,1.0505-8.12917,3.27068-8.37036,4.03668-8.66308,4.03668c-.9988,0-.53545-15.22174.52284-17.17433 .97673-1.80203 2.28596-1.94657 17.6319-1.94657 11.53415,0 16.94884.36736 17.79981,1.20764s1.22302,6.03818 1.22302,16.90689-.37632,16.07084-1.22302,16.9069-6.1442,1.20764-17.25329,1.20764c-13.21408,0-16.31166-.27782-17.63186-1.58143zm-39.08452-11.05517c-4.38014-3.02937-2.06329-10.50974 3.25514-10.50974 5.25383,0 7.71284,7.54455 3.42555,10.50974-1.24587.86164-2.74903,1.56661-3.34034,1.56661s-2.09462-.70497-3.34035-1.56661z"/>
<path d="m162.00005,53.63429c-3.50702,0-6.34375,2.83674-6.34375,6.34375s2.83673,6.375 6.34375,6.375 6.34375-2.86799 6.34375-6.375-2.83675-6.34375-6.34375-6.34375zm40.125,0c-3.50702,0-6.34375,2.83674-6.34375,6.34375s2.83673,6.375 6.34375,6.375 6.34375-2.86799 6.34375-6.375-2.83675-6.34375-6.34375-6.34375zm-40.375,14.8125c-3.37696-.0013-6.67825.21099-9.71875.625-2.16254.82985-6.80309,10.03351-6.40625,12.71875 .59161,4.00332 2.64256,3.45531 6.375-1.75 1.31256-1.83051 1.43965-1.39671 1.46875,4.78125l.0312,6.8125h17l.0312-6.8125c.0291-6.17796.15619-6.61176 1.46875-4.78125 3.73244,5.20531 5.78339,5.75332 6.375,1.75 .39684-2.68524-4.24371-11.8889-6.40625-12.71875-3.38914-.40892-6.84179-.62373-10.21875-.625zm40.125,0c-3.37696-.0013-6.67825.21099-9.71875.625-2.16254.82985-6.80309,10.03351-6.40625,12.71875 .59161,4.00332 2.64256,3.45531 6.375-1.75 1.31256-1.83051 1.43965-1.39671 1.46875,4.78125l.0312,6.8125h17l.0312-6.8125c.0291-6.17796.15619-6.61176 1.46875-4.78125 3.73244,5.20531 5.78339,5.75332 6.375,1.75 .39684-2.68524-4.24371-11.8889-6.40625-12.71875-3.38914-.40892-6.84179-.62373-10.21875-.625z"/>
<path d="m143.0625,102.25v1.34375h7.84375v-1.34375h-7.84375zm29.84375,0v1.34375h18.3125v-1.34375h-18.3125zm40.3125,0v1.34375h7.84375v-1.34375h-7.84375z" transform="translate(0,-15)"/>
</g>
</svg>
